<svg width="60" height="60" viewBox="0 0 60 60" fill="none" xmlns="http://www.w3.org/2000/svg">
<g clip-path="url(#clip0_57_355)">
<path d="M30 20V30L35 35" stroke="#CADDA8" stroke-width="5" stroke-linecap="round" stroke-linejoin="round"/>
<path d="M7.625 27.5002C8.18523 22.0003 10.7507 16.8992 14.8318 13.1701C18.913 9.44097 24.2242 7.34488 29.7522 7.28174C35.2801 7.2186 40.6379 9.19283 44.8032 12.8278C48.9684 16.4627 51.6497 21.5039 52.3354 26.9895C53.0211 32.4751 51.6633 38.0212 48.5209 42.5696C45.3785 47.118 40.6716 50.3503 35.2982 51.6498C29.9248 52.9493 24.261 52.2251 19.3875 49.6153C14.514 47.0056 10.7718 42.6929 8.875 37.5002M7.625 50.0002V37.5002H20.125" stroke="#CADDA8" stroke-width="5" stroke-linecap="round" stroke-linejoin="round"/>
</g>
<defs>
<clipPath id="clip0_57_355">
<rect width="60" height="60" fill="white"/>
</clipPath>
</defs>
</svg>
