<svg width="60" height="60" viewBox="0 0 60 60" fill="none" xmlns="http://www.w3.org/2000/svg">
<g clip-path="url(#clip0_57_310)">
<path d="M30 46.25L22.5 42.5L7.5 50V17.5L22.5 10L37.5 17.5L52.5 10V28.75" stroke="#E8F4EB" stroke-width="5" stroke-linecap="round" stroke-linejoin="round"/>
<path d="M22.5 10V42.5" stroke="#E8F4EB" stroke-width="5" stroke-linecap="round" stroke-linejoin="round"/>
<path d="M37.5 17.5V31.25" stroke="#E8F4EB" stroke-width="5" stroke-linecap="round" stroke-linejoin="round"/>
<path d="M52.8025 50.3026C53.8516 49.2538 54.5662 47.9175 54.8557 46.4625C55.1453 45.0076 54.9969 43.4995 54.4293 42.1289C53.8617 40.7584 52.9004 39.5869 51.667 38.7627C50.4336 37.9385 48.9835 37.4985 47.5 37.4985C46.0165 37.4985 44.5664 37.9385 43.333 38.7627C42.0996 39.5869 41.1383 40.7584 40.5707 42.1289C40.0031 43.4995 39.8547 45.0076 40.1443 46.4625C40.4339 47.9175 41.1484 49.2538 42.1975 50.3026C43.2425 51.3501 45.01 52.9151 47.5 55.0001C50.1275 52.7751 51.8975 51.2101 52.8025 50.3026Z" stroke="#E8F4EB" stroke-width="5" stroke-linecap="round" stroke-linejoin="round"/>
<path d="M47.5 45V45.025" stroke="#E8F4EB" stroke-width="5" stroke-linecap="round" stroke-linejoin="round"/>
</g>
<defs>
<clipPath id="clip0_57_310">
<rect width="60" height="60" fill="white"/>
</clipPath>
</defs>
</svg>
